<svg width="12" height="14" viewBox="0 0 12 14" fill="none" xmlns="http://www.w3.org/2000/svg">
<path d="M5.14286 0C4.2 0 3.42857 0.771429 3.42857 1.71429H1.71429C0.771429 1.71429 0 2.48571 0 3.42857H12C12 2.48571 11.2286 1.71429 10.2857 1.71429H8.57143C8.57143 0.771429 7.8 0 6.85714 0H5.14286ZM1.71429 5.14286V13.3886C1.71429 13.5771 1.85143 13.7143 2.04 13.7143H9.97714C10.1657 13.7143 10.3029 13.5771 10.3029 13.3886V5.14286H8.58857V11.1429C8.58857 11.6229 8.21143 12 7.73143 12C7.25143 12 6.87429 11.6229 6.87429 11.1429V5.14286H5.16V11.1429C5.16 11.6229 4.78286 12 4.30286 12C3.82286 12 3.44571 11.6229 3.44571 11.1429V5.14286H1.73143H1.71429Z" fill="white"/>
</svg>
