<svg width="50" height="58" viewBox="0 0 50 58" fill="none" xmlns="http://www.w3.org/2000/svg">
<path d="M21.4286 0C17.5 0 14.2857 3.21429 14.2857 7.14286H7.14286C3.21429 7.14286 0 10.3571 0 14.2857H50C50 10.3571 46.7857 7.14286 42.8571 7.14286H35.7143C35.7143 3.21429 32.5 0 28.5714 0H21.4286ZM7.14286 21.4286V55.7857C7.14286 56.5714 7.71429 57.1429 8.5 57.1429H41.5714C42.3571 57.1429 42.9286 56.5714 42.9286 55.7857V21.4286H35.7857V46.4286C35.7857 48.4286 34.2143 50 32.2143 50C30.2143 50 28.6429 48.4286 28.6429 46.4286V21.4286H21.5V46.4286C21.5 48.4286 19.9286 50 17.9286 50C15.9286 50 14.3571 48.4286 14.3571 46.4286V21.4286H7.21429H7.14286Z" fill="#ECD687"/>
</svg>
